<svg xmlns="http://www.w3.org/2000/svg" viewBox="0 0 161 161"><defs><style>.cls-1{fill:none;stroke:#dedcdd;stroke-miterlimit:10;}</style></defs><g id="Layer_2" data-name="Layer 2"><g id="Layer_1-2" data-name="Layer 1"><rect class="cls-1" x="0.5" y="0.5" width="20" height="20"/><rect class="cls-1" x="20.5" y="0.5" width="20" height="20"/><rect class="cls-1" x="40.5" y="0.5" width="20" height="20"/><rect class="cls-1" x="60.5" y="0.5" width="20" height="20"/><rect class="cls-1" x="80.5" y="0.5" width="20" height="20"/><rect class="cls-1" x="100.5" y="0.5" width="20" height="20"/><rect class="cls-1" x="120.5" y="0.5" width="20" height="20"/><rect class="cls-1" x="140.5" y="0.5" width="20" height="20"/><rect class="cls-1" x="0.5" y="20.5" width="20" height="20"/><rect class="cls-1" x="20.5" y="20.5" width="20" height="20"/><rect class="cls-1" x="40.5" y="20.5" width="20" height="20"/><rect class="cls-1" x="60.5" y="20.5" width="20" height="20"/><rect class="cls-1" x="80.5" y="20.5" width="20" height="20"/><rect class="cls-1" x="100.5" y="20.5" width="20" height="20"/><rect class="cls-1" x="120.5" y="20.5" width="20" height="20"/><rect class="cls-1" x="140.5" y="20.5" width="20" height="20"/><rect class="cls-1" x="0.5" y="40.5" width="20" height="20"/><rect class="cls-1" x="20.5" y="40.5" width="20" height="20"/><rect class="cls-1" x="40.5" y="40.5" width="20" height="20"/><rect class="cls-1" x="60.5" y="40.5" width="20" height="20"/><rect class="cls-1" x="80.5" y="40.5" width="20" height="20"/><rect class="cls-1" x="100.5" y="40.5" width="20" height="20"/><rect class="cls-1" x="120.5" y="40.5" width="20" height="20"/><rect class="cls-1" x="140.5" y="40.5" width="20" height="20"/><rect class="cls-1" x="0.5" y="60.5" width="20" height="20"/><rect class="cls-1" x="20.5" y="60.5" width="20" height="20"/><rect class="cls-1" x="40.5" y="60.5" width="20" height="20"/><rect class="cls-1" x="60.5" y="60.5" width="20" height="20"/><rect class="cls-1" x="80.5" y="60.5" width="20" height="20"/><rect class="cls-1" x="100.5" y="60.5" width="20" height="20"/><rect class="cls-1" x="120.5" y="60.5" width="20" height="20"/><rect class="cls-1" x="140.5" y="60.5" width="20" height="20"/><rect class="cls-1" x="0.5" y="80.5" width="20" height="20"/><rect class="cls-1" x="20.5" y="80.5" width="20" height="20"/><rect class="cls-1" x="40.5" y="80.5" width="20" height="20"/><rect class="cls-1" x="60.5" y="80.5" width="20" height="20"/><rect class="cls-1" x="80.5" y="80.5" width="20" height="20"/><rect class="cls-1" x="100.5" y="80.5" width="20" height="20"/><rect class="cls-1" x="120.5" y="80.5" width="20" height="20"/><rect class="cls-1" x="140.5" y="80.5" width="20" height="20"/><rect class="cls-1" x="0.5" y="100.5" width="20" height="20"/><rect class="cls-1" x="20.5" y="100.5" width="20" height="20"/><rect class="cls-1" x="40.5" y="100.5" width="20" height="20"/><rect class="cls-1" x="60.5" y="100.5" width="20" height="20"/><rect class="cls-1" x="80.5" y="100.5" width="20" height="20"/><rect class="cls-1" x="100.5" y="100.5" width="20" height="20"/><rect class="cls-1" x="120.5" y="100.5" width="20" height="20"/><rect class="cls-1" x="140.5" y="100.5" width="20" height="20"/><rect class="cls-1" x="0.5" y="120.5" width="20" height="20"/><rect class="cls-1" x="20.5" y="120.5" width="20" height="20"/><rect class="cls-1" x="40.5" y="120.5" width="20" height="20"/><rect class="cls-1" x="60.5" y="120.5" width="20" height="20"/><rect class="cls-1" x="80.5" y="120.5" width="20" height="20"/><rect class="cls-1" x="100.5" y="120.5" width="20" height="20"/><rect class="cls-1" x="120.5" y="120.5" width="20" height="20"/><rect class="cls-1" x="140.5" y="120.5" width="20" height="20"/><rect class="cls-1" x="0.5" y="140.5" width="20" height="20"/><rect class="cls-1" x="20.5" y="140.5" width="20" height="20"/><rect class="cls-1" x="40.5" y="140.5" width="20" height="20"/><rect class="cls-1" x="60.5" y="140.5" width="20" height="20"/><rect class="cls-1" x="80.5" y="140.5" width="20" height="20"/><rect class="cls-1" x="100.5" y="140.5" width="20" height="20"/><rect class="cls-1" x="120.5" y="140.5" width="20" height="20"/><rect class="cls-1" x="140.5" y="140.5" width="20" height="20"/></g></g></svg>