<svg xmlns="http://www.w3.org/2000/svg" viewBox="0 0 723.7 147.33"><defs><style>.cls-1{fill:#d3a4cc;}</style></defs><g id="Layer_2" data-name="Layer 2"><g id="Layer_1-2" data-name="Layer 1"><path d="M4.86,48.23A35.22,35.22,0,0,1,18.22,34.15a36.94,36.94,0,0,1,19.07-5,35.44,35.44,0,0,1,17,4.22,30.46,30.46,0,0,1,12,11.07V3H79.45V108.75H66.3V94a30.38,30.38,0,0,1-11.43,11.5A34.05,34.05,0,0,1,37.15,110,35.61,35.61,0,0,1,4.86,90.46,45,45,0,0,1,0,69.31,44,44,0,0,1,4.86,48.23ZM62.73,54a25.33,25.33,0,0,0-9.64-10.08,26.38,26.38,0,0,0-13.37-3.5,26.37,26.37,0,0,0-13.29,3.43,24.9,24.9,0,0,0-9.57,10,31.89,31.89,0,0,0-3.57,15.44A32.57,32.57,0,0,0,16.86,85,25.31,25.31,0,0,0,26.43,95.1a25.93,25.93,0,0,0,13.29,3.5,26.38,26.38,0,0,0,13.37-3.5A25.2,25.2,0,0,0,62.73,85a32.25,32.25,0,0,0,3.57-15.5A31.83,31.83,0,0,0,62.73,54Z"/><path d="M172.47,74.45H109.88q.72,11.58,7.93,18.08A25.25,25.25,0,0,0,135.32,99q8.43,0,14.07-3.93a20.8,20.8,0,0,0,7.93-10.5h14A33.71,33.71,0,0,1,158.75,103Q149.33,110,135.32,110a39.55,39.55,0,0,1-19.94-5A35.35,35.35,0,0,1,101.6,90.81a44,44,0,0,1-5-21.36,44.71,44.71,0,0,1,4.85-21.29A34.13,34.13,0,0,1,115.1,34.08a40.7,40.7,0,0,1,20.22-4.93A39.3,39.3,0,0,1,155,34a33.61,33.61,0,0,1,13.21,13.36,39.41,39.41,0,0,1,4.65,19.22A75.3,75.3,0,0,1,172.47,74.45ZM156.18,51.09a21.36,21.36,0,0,0-8.93-8.15,28,28,0,0,0-12.5-2.78A24.11,24.11,0,0,0,118,46.44Q111,52.74,110,63.88h49.44A24,24,0,0,0,156.18,51.09Z"/><path d="M201.62,107a27.25,27.25,0,0,1-11.29-8.58,22.83,22.83,0,0,1-4.57-12.64h13.43a13.17,13.17,0,0,0,5.5,9.57Q209.63,99,217.63,99q7.43,0,11.72-3.29a10.05,10.05,0,0,0,4.28-8.29,8.17,8.17,0,0,0-4.57-7.64q-4.58-2.5-14.15-4.93a103.9,103.9,0,0,1-14.22-4.64,25.27,25.27,0,0,1-9.43-7Q187.33,58.6,187.33,51a18.48,18.48,0,0,1,3.58-11,24.29,24.29,0,0,1,10.14-7.93,36.55,36.55,0,0,1,15-2.93q13,0,21,6.57t8.57,18h-13a13.44,13.44,0,0,0-4.93-9.86q-4.5-3.72-12.07-3.71-7,0-11.15,3A9.28,9.28,0,0,0,200.34,51a8.57,8.57,0,0,0,2.5,6.35,18.13,18.13,0,0,0,6.29,4,105.71,105.71,0,0,0,10.5,3.35,115.78,115.78,0,0,1,13.72,4.5,24.06,24.06,0,0,1,9.07,6.65c2.52,3,3.84,6.81,3.93,11.57A19.84,19.84,0,0,1,242.78,99a23.83,23.83,0,0,1-10.08,8.07A36,36,0,0,1,217.77,110,40.52,40.52,0,0,1,201.62,107Z"/><path d="M265.07,15.15a8.54,8.54,0,0,1-2.57-6.29,8.54,8.54,0,0,1,2.57-6.29A8.56,8.56,0,0,1,271.36,0a8.17,8.17,0,0,1,6.07,2.57,8.68,8.68,0,0,1,2.5,6.29,8.68,8.68,0,0,1-2.5,6.29,8.17,8.17,0,0,1-6.07,2.57A8.56,8.56,0,0,1,265.07,15.15Zm12.57,15.29v78.31h-13V30.44Z"/><path d="M349.88,33.58a29.5,29.5,0,0,1,11.36,11.15V30.44h13.15v80a39.1,39.1,0,0,1-4.58,19.08,32.62,32.62,0,0,1-13.07,13.07A40.09,40.09,0,0,1,337,147.33q-15.45,0-25.73-7.29a28.48,28.48,0,0,1-12.14-19.86h12.86a20.47,20.47,0,0,0,8.86,11.5A29,29,0,0,0,337,136q10.71,0,17.5-6.72t6.79-18.86V94a31.45,31.45,0,0,1-11.43,11.43A33.65,33.65,0,0,1,332.08,110a35.61,35.61,0,0,1-32.29-19.57,45,45,0,0,1-4.85-21.15,44,44,0,0,1,4.85-21.08,35.29,35.29,0,0,1,13.36-14.08,36.69,36.69,0,0,1,18.93-5A34.91,34.91,0,0,1,349.88,33.58ZM357.66,54A25.26,25.26,0,0,0,348,43.94a27.35,27.35,0,0,0-26.65-.07,25,25,0,0,0-9.58,10,31.89,31.89,0,0,0-3.57,15.44A32.57,32.57,0,0,0,311.79,85a25.4,25.4,0,0,0,9.58,10.15,25.93,25.93,0,0,0,13.29,3.5A26.31,26.31,0,0,0,348,95.1,25.13,25.13,0,0,0,357.66,85a32.13,32.13,0,0,0,3.58-15.5A31.72,31.72,0,0,0,357.66,54Z"/><path d="M457.69,37.65q8.87,8.66,8.86,24.94v46.16H453.69V64.45q0-11.72-5.86-17.94t-16-6.21q-10.29,0-16.37,6.43t-6.07,18.72v43.3h-13V30.44h13V41.59A25.69,25.69,0,0,1,419.9,32.3,32.42,32.42,0,0,1,434.54,29Q448.84,29,457.69,37.65Z"/><path d="M503.71,41.16V87.31c0,3.81.8,6.5,2.43,8.07s4.43,2.36,8.43,2.36h9.57v11H512.42q-10.86,0-16.28-5T490.7,87.31V41.16H480.56V30.44H490.7V10.72h13V30.44h20.43V41.16Z"/><path d="M594.73,32.8A26.91,26.91,0,0,1,606,44.16Q610,51.74,610,62.59v46.16H597.16V64.45q0-11.72-5.86-17.94t-16-6.21q-10.27,0-16.36,6.43t-6.07,18.72v43.3h-13V3h13V41.59a25.52,25.52,0,0,1,10.65-9.29A34.3,34.3,0,0,1,578.72,29,33.61,33.61,0,0,1,594.73,32.8Z"/><path d="M631.74,15.15a8.58,8.58,0,0,1-2.57-6.29,8.58,8.58,0,0,1,2.57-6.29A8.58,8.58,0,0,1,638,0a8.17,8.17,0,0,1,6.07,2.57,8.68,8.68,0,0,1,2.5,6.29,8.68,8.68,0,0,1-2.5,6.29A8.17,8.17,0,0,1,638,17.72,8.58,8.58,0,0,1,631.74,15.15Zm12.58,15.29v78.31h-13V30.44Z"/><path d="M678,107a27.19,27.19,0,0,1-11.29-8.58,22.77,22.77,0,0,1-4.58-12.64h13.44a13.14,13.14,0,0,0,5.5,9.57Q686,99,694,99q7.43,0,11.72-3.29a10,10,0,0,0,4.29-8.29,8.19,8.19,0,0,0-4.57-7.64q-4.59-2.5-14.15-4.93a103.44,103.44,0,0,1-14.22-4.64,25.27,25.27,0,0,1-9.43-7Q663.75,58.6,663.75,51a18.54,18.54,0,0,1,3.57-11,24.26,24.26,0,0,1,10.15-7.93,36.53,36.53,0,0,1,15-2.93q13,0,21,6.57t8.57,18h-13a13.47,13.47,0,0,0-4.93-9.86q-4.51-3.72-12.08-3.71-7,0-11.14,3A9.26,9.26,0,0,0,676.75,51a8.57,8.57,0,0,0,2.5,6.35,18.22,18.22,0,0,0,6.29,4A106.59,106.59,0,0,0,696,64.73a115.16,115.16,0,0,1,13.72,4.5,24.17,24.17,0,0,1,9.08,6.65q3.78,4.43,3.93,11.57A19.85,19.85,0,0,1,719.19,99a23.8,23.8,0,0,1-10.07,8.07A36.08,36.08,0,0,1,694.18,110,40.43,40.43,0,0,1,678,107Z"/><rect class="cls-1" x="483.81" y="118.41" width="239.89" height="14.6"/><rect class="cls-1" x="483.81" y="110.03" width="239.89" height="30.44"/></g></g></svg>