<svg xmlns="http://www.w3.org/2000/svg" viewBox="0 0 63.54 54.29"><defs><style>.cls-1{fill:#d3a4cc;}</style></defs><g id="Layer_2" data-name="Layer 2"><g id="Layer_1-2" data-name="Layer 1"><path class="cls-1" d="M21.56,26.11s0-.05,0-.05a9.76,9.76,0,0,0-5.26-1.54h-.18a10.39,10.39,0,0,1,5.23,1.54s.06.05.06.05a11.4,11.4,0,0,1,5,6.83A11.27,11.27,0,0,0,21.56,26.11Z"/><path d="M28.57,7.35V25.21a13.86,13.86,0,0,0-5.16-4.77,15.36,15.36,0,0,0-7.34-1.83A15.91,15.91,0,0,0,7.85,20.8a14.9,14.9,0,0,0-5.77,6.05A19.11,19.11,0,0,0,0,35.94a19.42,19.42,0,0,0,2.08,9.11A15.3,15.3,0,0,0,16,53.49a14.5,14.5,0,0,0,7.62-2,12.87,12.87,0,0,0,4.93-4.95v6.34h5.67V7.35ZM26.44,38.71c-.08.33-.16.64-.26.95a11.25,11.25,0,0,1-3.62,5.47s0,0,0,0a9.77,9.77,0,0,1-6.26,2.28H16a10,10,0,0,1-7-3.18,11.86,11.86,0,0,1-3.18-6.9A12.66,12.66,0,0,1,5.72,36a11.45,11.45,0,0,1,.08-1.33A11.82,11.82,0,0,1,9,27.7a10,10,0,0,1,7.09-3.18h.18a9.76,9.76,0,0,1,5.26,1.54s0,.05,0,.05a11.27,11.27,0,0,1,4.8,6.83A11.8,11.8,0,0,1,26.74,36,12.06,12.06,0,0,1,26.44,38.71Z"/><path class="cls-1" d="M52.22,16.86V42.42q0,3.16,1.35,4.47c.89.87,2.45,1.31,4.67,1.31h5.3v6.09H57.05q-6,0-9-2.77t-3-9.1V16.86H39.4V10.92H45V0h7.2V10.92H63.54v5.94Z"/><path d="M26.36,32.94a11.4,11.4,0,0,0-5-6.83s0-.05-.06-.05a10.39,10.39,0,0,0-5.23-1.54h.18a9.76,9.76,0,0,1,5.26,1.54s0,.05,0,.05A11.27,11.27,0,0,1,26.36,32.94Z"/></g></g></svg>